<svg xmlns="http://www.w3.org/2000/svg" width="400" height="300" viewBox="0 0 400 300">
  <defs>
    <linearGradient id="bg" x1="0%" y1="0%" x2="100%" y2="100%">
      <stop offset="0%" stop-color="#2e3856"/>
      <stop offset="100%" stop-color="#171c2b"/>
    </linearGradient>
  </defs>
  <rect width="400" height="300" fill="url(#bg)" rx="12"/>
  
  <g transform="translate(100, 50)">
    <rect x="0" y="0" width="35" height="35" rx="4" fill="#3f4e75"/>
    <text x="17.5" y="22" font-family="sans-serif" font-size="14" fill="white" text-anchor="middle">14</text>
    <rect x="40" y="0" width="35" height="35" rx="4" fill="#3f4e75"/>
    <text x="57.5" y="22" font-family="sans-serif" font-size="14" fill="white" text-anchor="middle">5</text>
    <rect x="80" y="0" width="35" height="35" rx="4" fill="#3f4e75"/>
    <text x="97.5" y="22" font-family="sans-serif" font-size="14" fill="white" text-anchor="middle">21</text>
    <rect x="120" y="0" width="35" height="35" rx="4" fill="#3f4e75"/>
    <text x="137.5" y="22" font-family="sans-serif" font-size="14" fill="white" text-anchor="middle">16</text>
    <rect x="160" y="0" width="35" height="35" rx="4" fill="#3f4e75"/>
    <text x="177.5" y="22" font-family="sans-serif" font-size="14" fill="white" text-anchor="middle">8</text>
    
    <rect x="0" y="40" width="35" height="35" rx="4" fill="#3f4e75"/>
    <text x="17.5" y="62" font-family="sans-serif" font-size="14" fill="white" text-anchor="middle">20</text>
    <rect x="40" y="40" width="35" height="35" rx="4" fill="#3f4e75"/>
    <text x="57.5" y="62" font-family="sans-serif" font-size="14" fill="white" text-anchor="middle">22</text>
    <rect x="80" y="40" width="35" height="35" rx="4" fill="#3f4e75"/>
    <text x="97.5" y="62" font-family="sans-serif" font-size="14" fill="white" text-anchor="middle">18</text>
    <rect x="120" y="40" width="35" height="35" rx="4" fill="#3f4e75"/>
    <text x="137.5" y="62" font-family="sans-serif" font-size="14" fill="white" text-anchor="middle">6</text>
    <rect x="160" y="40" width="35" height="35" rx="4" fill="#3f4e75"/>
    <text x="177.5" y="62" font-family="sans-serif" font-size="14" fill="white" text-anchor="middle">17</text>
    
    <rect x="0" y="80" width="35" height="35" rx="4" fill="#3f4e75"/>
    <text x="17.5" y="102" font-family="sans-serif" font-size="14" fill="white" text-anchor="middle">19</text>
    <rect x="40" y="80" width="35" height="35" rx="4" fill="#3f4e75"/>
    <text x="57.5" y="102" font-family="sans-serif" font-size="14" fill="white" text-anchor="middle">13</text>
    <rect x="80" y="80" width="35" height="35" rx="4" fill="#22c55e"/>
    <text x="97.5" y="102" font-family="sans-serif" font-size="14" fill="white" text-anchor="middle">26</text>
    <rect x="120" y="80" width="35" height="35" rx="4" fill="#3f4e75"/>
    <text x="137.5" y="102" font-family="sans-serif" font-size="14" fill="white" text-anchor="middle">3</text>
    <rect x="160" y="80" width="35" height="35" rx="4" fill="#3f4e75"/>
    <text x="177.5" y="102" font-family="sans-serif" font-size="14" fill="white" text-anchor="middle">24</text>
    
    <rect x="0" y="120" width="35" height="35" rx="4" fill="#3f4e75"/>
    <text x="17.5" y="142" font-family="sans-serif" font-size="14" fill="white" text-anchor="middle">7</text>
    <rect x="40" y="120" width="35" height="35" rx="4" fill="#3f4e75"/>
    <text x="57.5" y="142" font-family="sans-serif" font-size="14" fill="white" text-anchor="middle">10</text>
    <rect x="80" y="120" width="35" height="35" rx="4" fill="#3f4e75"/>
    <text x="97.5" y="142" font-family="sans-serif" font-size="14" fill="white" text-anchor="middle">2</text>
    <rect x="120" y="120" width="35" height="35" rx="4" fill="#3f4e75"/>
    <text x="137.5" y="142" font-family="sans-serif" font-size="14" fill="white" text-anchor="middle">9</text>
    <rect x="160" y="120" width="35" height="35" rx="4" fill="#3f4e75"/>
    <text x="177.5" y="142" font-family="sans-serif" font-size="14" fill="white" text-anchor="middle">23</text>
  </g>
</svg>
