<svg xmlns="http://www.w3.org/2000/svg" width="400" height="300" viewBox="0 0 400 300">
  <defs>
    <linearGradient id="bg" x1="0%" y1="0%" x2="100%" y2="100%">
      <stop offset="0%" stop-color="#1e3a8a"/>
      <stop offset="100%" stop-color="#0f172a"/>
    </linearGradient>
  </defs>
  <rect width="400" height="300" fill="url(#bg)" rx="12"/>
  
  <text x="200" y="80" font-family="sans-serif" font-size="32" font-weight="bold" fill="white" text-anchor="middle">11 + 4 = ?</text>
  
  <g transform="translate(140, 140)">
    <rect x="0" y="0" width="35" height="35" rx="4" fill="#334155" opacity="0.8"/>
    <text x="17.5" y="23" font-family="sans-serif" font-size="16" font-weight="bold" fill="white" text-anchor="middle">1</text>
    <rect x="42" y="0" width="35" height="35" rx="4" fill="#334155" opacity="0.8"/>
    <text x="59.5" y="23" font-family="sans-serif" font-size="16" font-weight="bold" fill="white" text-anchor="middle">2</text>
    <rect x="84" y="0" width="35" height="35" rx="4" fill="#334155" opacity="0.8"/>
    <text x="101.5" y="23" font-family="sans-serif" font-size="16" font-weight="bold" fill="white" text-anchor="middle">3</text>
    
    <rect x="0" y="42" width="35" height="35" rx="4" fill="#334155" opacity="0.8"/>
    <text x="17.5" y="65" font-family="sans-serif" font-size="16" font-weight="bold" fill="white" text-anchor="middle">4</text>
    <rect x="42" y="42" width="35" height="35" rx="4" fill="#3b82f6" opacity="0.9"/>
    <text x="59.5" y="65" font-family="sans-serif" font-size="16" font-weight="bold" fill="white" text-anchor="middle">5</text>
    <rect x="84" y="42" width="35" height="35" rx="4" fill="#334155" opacity="0.8"/>
    <text x="101.5" y="65" font-family="sans-serif" font-size="16" font-weight="bold" fill="white" text-anchor="middle">6</text>
    
    <rect x="0" y="84" width="35" height="35" rx="4" fill="#334155" opacity="0.8"/>
    <text x="17.5" y="107" font-family="sans-serif" font-size="16" font-weight="bold" fill="white" text-anchor="middle">7</text>
    <rect x="42" y="84" width="35" height="35" rx="4" fill="#334155" opacity="0.8"/>
    <text x="59.5" y="107" font-family="sans-serif" font-size="16" font-weight="bold" fill="white" text-anchor="middle">8</text>
    <rect x="84" y="84" width="35" height="35" rx="4" fill="#334155" opacity="0.8"/>
    <text x="101.5" y="107" font-family="sans-serif" font-size="16" font-weight="bold" fill="white" text-anchor="middle">9</text>
    
    <rect x="0" y="126" width="35" height="35" rx="4" fill="#334155" opacity="0.8"/>
    <text x="17.5" y="149" font-family="sans-serif" font-size="16" font-weight="bold" fill="white" text-anchor="middle">0</text>
    <rect x="42" y="126" width="35" height="35" rx="4" fill="#ef4444" opacity="0.8"/>
    <text x="59.5" y="149" font-family="sans-serif" font-size="16" font-weight="bold" fill="white" text-anchor="middle">C</text>
    <rect x="84" y="126" width="35" height="35" rx="4" fill="#eab308" opacity="0.8"/>
    <text x="101.5" y="149" font-family="sans-serif" font-size="16" font-weight="bold" fill="white" text-anchor="middle">←</text>
  </g>
</svg>
