<svg xmlns="http://www.w3.org/2000/svg" width="400" height="300" viewBox="0 0 400 300">
  <defs>
    <linearGradient id="bg2" x1="0%" y1="0%" x2="100%" y2="100%">
      <stop offset="0%" stop-color="#2c416e"/>
      <stop offset="100%" stop-color="#1a2744"/>
    </linearGradient>
  </defs>
  <rect width="400" height="300" fill="url(#bg2)" rx="12"/>
  <g transform="translate(105, 50)">
    <rect x="0" y="0" width="40" height="40" rx="6" fill="#3f5a8a" opacity="0.8"/>
    <rect x="50" y="0" width="40" height="40" rx="6" fill="#3f5a8a" opacity="0.8"/>
    <rect x="100" y="0" width="40" height="40" rx="6" fill="#3f5a8a" opacity="0.8"/>
    <rect x="150" y="0" width="40" height="40" rx="6" fill="#3f5a8a" opacity="0.8"/>
    
    <rect x="0" y="50" width="40" height="40" rx="6" fill="#3f5a8a" opacity="0.8"/>
    <rect x="50" y="50" width="40" height="40" rx="6" fill="#3f5a8a" opacity="0.8"/>
    <rect x="100" y="50" width="40" height="40" rx="6" fill="#3f5a8a" opacity="0.8"/>
    <rect x="150" y="50" width="40" height="40" rx="6" fill="#4ade80"/>
    
    <rect x="0" y="100" width="40" height="40" rx="6" fill="#3f5a8a" opacity="0.8"/>
    <rect x="50" y="100" width="40" height="40" rx="6" fill="#3f5a8a" opacity="0.8"/>
    <rect x="100" y="100" width="40" height="40" rx="6" fill="#3f5a8a" opacity="0.8"/>
    <rect x="150" y="100" width="40" height="40" rx="6" fill="#4ade80"/>
    
    <rect x="0" y="150" width="40" height="40" rx="6" fill="#3f5a8a" opacity="0.8"/>
    <rect x="50" y="150" width="40" height="40" rx="6" fill="#3f5a8a" opacity="0.8"/>
    <rect x="100" y="150" width="40" height="40" rx="6" fill="#3f5a8a" opacity="0.8"/>
    <rect x="150" y="150" width="40" height="40" rx="6" fill="#3f5a8a" opacity="0.8"/>
  </g>
  <rect x="120" y="260" width="160" height="24" rx="12" fill="#2563eb" opacity="0.8"/>
  <text x="200" y="276" font-family="sans-serif" font-size="10" font-weight="bold" fill="white" text-anchor="middle">Select all highlighted tiles</text>
</svg>
